<svg width="800" height="400" viewBox="0 0 419 212" fill="none" xmlns="http://www.w3.org/2000/svg">
<g filter="url(#filter0_d_233_4726)">
<g filter="url(#filter1_iii_233_4726)">
<path fill-rule="evenodd" clip-rule="evenodd" d="M18.7147 45.0075C10.5608 45.4176 4 62.4942 4 83.5C4 104.506 10.5608 121.582 18.7147 121.992V122H19.0149H96.1918V121.992C96.2916 121.997 96.3917 122 96.492 122C104.785 122 111.507 104.763 111.507 83.5C111.507 62.237 104.785 45 96.492 45C96.3917 45 96.2916 45.0025 96.1918 45.0075V45H19.0149H18.7147V45.0075Z" fill="#1F1F1F"/>
</g>
<g filter="url(#filter2_iiii_233_4726)">
<path fill-rule="evenodd" clip-rule="evenodd" d="M95.363 3C91.5895 1.04286 87.6257 0 83.5374 0C58.1246 0 37.5234 40.2944 37.5234 90C37.5234 139.098 57.6237 179.013 82.607 179.982V180H83.5374H319.585V179.96C320.044 179.987 320.504 180 320.966 180C346.379 180 366.98 139.706 366.98 90C366.98 40.2944 346.379 0 320.966 0C316.878 0 312.914 1.04286 309.141 3H95.363Z" fill="#272727"/>
</g>
<mask id="path-3-inside-1_233_4726" fill="white">
<path fill-rule="evenodd" clip-rule="evenodd" d="M97.0423 179.973C96.6722 179.991 96.301 180 95.9288 180C71.3337 180 51.3955 140.377 51.3955 91.5C51.3955 42.6228 71.3337 3 95.9288 3C96.301 3 96.6722 3.00908 97.0423 3.02713V3H308.575C333.171 3 353.109 42.6228 353.109 91.5C353.109 140.377 333.171 180 308.575 180H97.0423V179.973Z"/>
</mask>
<g filter="url(#filter3_i_233_4726)">
<path fill-rule="evenodd" clip-rule="evenodd" d="M97.0423 179.973C96.6722 179.991 96.301 180 95.9288 180C71.3337 180 51.3955 140.377 51.3955 91.5C51.3955 42.6228 71.3337 3 95.9288 3C96.301 3 96.6722 3.00908 97.0423 3.02713V3H308.575C333.171 3 353.109 42.6228 353.109 91.5C353.109 140.377 333.171 180 308.575 180H97.0423V179.973Z" fill="#F9A21F"/>
<path fill-rule="evenodd" clip-rule="evenodd" d="M97.0423 179.973C96.6722 179.991 96.301 180 95.9288 180C71.3337 180 51.3955 140.377 51.3955 91.5C51.3955 42.6228 71.3337 3 95.9288 3C96.301 3 96.6722 3.00908 97.0423 3.02713V3H308.575C333.171 3 353.109 42.6228 353.109 91.5C353.109 140.377 333.171 180 308.575 180H97.0423V179.973Z" fill="url(#paint0_linear_233_4726)" fill-opacity="0.6"/>
</g>
<path d="M97.0423 179.973H100.042V176.823L96.8961 176.976L97.0423 179.973ZM97.0423 3.02713L96.8961 6.02356L100.042 6.177V3.02713H97.0423ZM97.0423 3V0H94.0423V3H97.0423ZM97.0423 180H94.0423V183H97.0423V180ZM95.9288 183C96.3498 183 96.7697 182.99 97.1884 182.969L96.8961 176.976C96.5747 176.992 96.2522 177 95.9288 177V183ZM48.3955 91.5C48.3955 116.306 53.4486 138.912 61.7592 155.427C69.9821 171.769 81.8928 183 95.9288 183V177C85.3697 177 75.0137 168.42 67.1188 152.73C59.3115 137.215 54.3955 115.571 54.3955 91.5H48.3955ZM95.9288 0C81.8928 0 69.9821 11.2312 61.7592 27.5726C53.4486 44.0879 48.3955 66.694 48.3955 91.5H54.3955C54.3955 67.4288 59.3115 45.7849 67.1188 30.2695C75.0137 14.5802 85.3697 6 95.9288 6V0ZM97.1884 0.0306869C96.7697 0.0102668 96.3498 0 95.9288 0V6C96.2522 6 96.5747 6.00789 96.8961 6.02356L97.1884 0.0306869ZM100.042 3.02713V3H94.0423V3.02713H100.042ZM97.0423 6H308.575V0H97.0423V6ZM356.109 91.5C356.109 66.694 351.056 44.0879 342.745 27.5726C334.522 11.2312 322.611 0 308.575 0V6C319.135 6 329.49 14.5802 337.385 30.2695C345.193 45.7849 350.109 67.4288 350.109 91.5H356.109ZM308.575 183C322.611 183 334.522 171.769 342.745 155.427C351.056 138.912 356.109 116.306 356.109 91.5H350.109C350.109 115.571 345.193 137.215 337.385 152.73C329.49 168.42 319.135 177 308.575 177V183ZM308.575 177H97.0423V183H308.575V177ZM100.042 180V179.973H94.0423V180H100.042Z" fill="url(#paint1_linear_233_4726)" mask="url(#path-3-inside-1_233_4726)"/>
<path d="M156.142 130H151.615L152.704 122.256H157.167L157.045 123.066H153.637L153.285 125.571H156.283L156.186 126.27H153.183L152.768 129.194H156.269L156.142 130ZM162.411 123.066H160.37L159.398 130H158.358L159.33 123.066H157.279L157.396 122.256H162.523L162.411 123.066ZM166.581 130H162.055L163.144 122.256H167.606L167.484 123.066H164.076L163.725 125.571H166.723L166.625 126.27H163.622L163.207 129.194H166.708L166.581 130ZM171.562 130C171.601 129.71 171.635 129.456 171.664 129.238C171.693 129.017 171.718 128.825 171.737 128.662C171.76 128.499 171.78 128.363 171.796 128.252C171.812 128.141 171.825 128.047 171.835 127.969C171.845 127.891 171.851 127.827 171.854 127.778C171.861 127.729 171.866 127.686 171.869 127.646C171.869 127.464 171.848 127.311 171.806 127.188C171.76 127.002 171.674 126.864 171.547 126.772C171.423 126.678 171.249 126.608 171.024 126.562C170.875 126.517 170.699 126.484 170.497 126.465C170.299 126.445 170.067 126.436 169.804 126.436H169.032L168.515 130H167.47L168.583 122.256H170.473C170.736 122.256 170.984 122.262 171.215 122.275C171.449 122.285 171.666 122.308 171.864 122.344C172.079 122.383 172.276 122.44 172.455 122.515C172.634 122.59 172.787 122.689 172.914 122.812C173.044 122.936 173.145 123.088 173.217 123.267C173.292 123.446 173.329 123.66 173.329 123.911C173.329 124.302 173.262 124.634 173.129 124.907C172.995 125.177 172.823 125.399 172.611 125.571C172.403 125.744 172.17 125.871 171.913 125.952C171.659 126.034 171.41 126.076 171.166 126.079C171.449 126.108 171.698 126.159 171.913 126.23C172.128 126.299 172.309 126.393 172.455 126.514C172.602 126.634 172.712 126.782 172.787 126.958C172.865 127.131 172.906 127.336 172.909 127.573C172.909 127.603 172.906 127.65 172.899 127.715C172.893 127.777 172.882 127.882 172.865 128.032C172.839 128.244 172.805 128.507 172.763 128.823C172.72 129.136 172.667 129.528 172.602 130H171.562ZM169.701 125.732C170.082 125.732 170.435 125.716 170.761 125.684C171.086 125.648 171.368 125.573 171.605 125.459C171.846 125.345 172.035 125.181 172.172 124.966C172.309 124.751 172.377 124.461 172.377 124.097C172.377 123.862 172.326 123.678 172.226 123.545C172.125 123.408 171.986 123.304 171.811 123.232C171.638 123.161 171.436 123.115 171.205 123.096C170.977 123.076 170.735 123.066 170.478 123.066H169.511L169.13 125.732H169.701ZM179.784 130H178.383L177.489 127.793L175.722 123.345L174.789 130H173.773L174.872 122.256H176.283L177.167 124.458L178.939 128.911L179.867 122.256H180.883L179.784 130ZM184.794 123.149L183.998 124.917L182.802 127.544H185.395L185.028 124.961L184.794 123.149ZM184.208 122.256H185.614L186.806 130H185.756L185.487 128.11H182.558L181.703 130H180.639L184.208 122.256ZM191.913 130H187.572L188.661 122.256H189.706L188.729 129.194H192.016L191.913 130ZM200.243 123.555C200.172 123.499 200.071 123.441 199.94 123.379C199.813 123.314 199.67 123.254 199.511 123.198C199.351 123.143 199.182 123.097 199.003 123.062C198.824 123.026 198.65 123.008 198.48 123.008C198.155 123.008 197.878 123.037 197.65 123.096C197.423 123.154 197.235 123.237 197.089 123.345C196.946 123.452 196.841 123.582 196.776 123.735C196.711 123.888 196.679 124.059 196.679 124.248C196.679 124.378 196.698 124.491 196.737 124.585C196.776 124.676 196.835 124.757 196.913 124.829C196.991 124.901 197.087 124.966 197.201 125.024C197.318 125.083 197.453 125.142 197.606 125.2L198.749 125.645C198.98 125.736 199.184 125.84 199.359 125.957C199.538 126.071 199.688 126.203 199.809 126.353C199.929 126.499 200.02 126.667 200.082 126.855C200.144 127.041 200.175 127.251 200.175 127.485C200.175 127.843 200.116 128.187 199.999 128.516C199.882 128.841 199.701 129.129 199.457 129.38C199.213 129.627 198.904 129.826 198.529 129.976C198.155 130.122 197.712 130.195 197.201 130.195C196.973 130.195 196.75 130.179 196.532 130.146C196.314 130.114 196.111 130.073 195.922 130.024C195.736 129.976 195.574 129.922 195.434 129.863C195.294 129.805 195.188 129.748 195.116 129.692L195.331 128.794C195.451 128.869 195.577 128.939 195.707 129.004C195.84 129.066 195.982 129.119 196.132 129.165C196.285 129.211 196.448 129.246 196.62 129.272C196.793 129.295 196.98 129.307 197.182 129.307C197.833 129.307 198.318 129.175 198.637 128.911C198.956 128.647 199.115 128.241 199.115 127.69C199.115 127.554 199.096 127.433 199.057 127.329C199.021 127.225 198.965 127.132 198.891 127.051C198.819 126.966 198.731 126.893 198.627 126.831C198.523 126.766 198.402 126.706 198.266 126.65L197.035 126.133C196.814 126.042 196.612 125.939 196.43 125.825C196.163 125.659 195.963 125.461 195.829 125.229C195.696 124.995 195.629 124.731 195.629 124.438C195.629 124.074 195.704 123.748 195.854 123.462C196.003 123.175 196.202 122.933 196.449 122.734C196.697 122.533 196.981 122.38 197.304 122.275C197.626 122.168 197.96 122.114 198.305 122.114C198.529 122.114 198.747 122.129 198.959 122.158C199.171 122.184 199.369 122.223 199.555 122.275C199.743 122.324 199.916 122.383 200.072 122.451C200.229 122.516 200.365 122.588 200.482 122.666L200.243 123.555ZM206.396 123.066H204.354L203.383 130H202.343L203.314 123.066H201.264L201.381 122.256H206.508L206.396 123.066ZM212.631 125C212.631 125.768 212.538 126.471 212.353 127.109C212.167 127.744 211.908 128.291 211.576 128.75C211.244 129.206 210.85 129.561 210.395 129.814C209.939 130.068 209.441 130.195 208.9 130.195C208.513 130.195 208.165 130.138 207.855 130.024C207.546 129.914 207.283 129.743 207.064 129.512C206.846 129.281 206.679 128.991 206.562 128.643C206.444 128.291 206.386 127.876 206.386 127.397C206.386 126.896 206.426 126.418 206.508 125.962C206.592 125.503 206.711 125.078 206.864 124.688C207.017 124.297 207.203 123.944 207.421 123.628C207.642 123.312 207.89 123.042 208.163 122.817C208.437 122.593 208.734 122.42 209.057 122.3C209.382 122.179 209.726 122.119 210.087 122.119C210.53 122.119 210.91 122.186 211.229 122.319C211.552 122.453 211.815 122.645 212.021 122.896C212.229 123.143 212.382 123.446 212.479 123.804C212.58 124.159 212.631 124.557 212.631 125ZM211.557 124.985C211.557 124.696 211.529 124.43 211.474 124.189C211.418 123.945 211.329 123.737 211.205 123.564C211.081 123.389 210.919 123.252 210.717 123.154C210.518 123.057 210.274 123.008 209.984 123.008C209.701 123.008 209.442 123.066 209.208 123.184C208.974 123.298 208.762 123.457 208.573 123.662C208.388 123.864 208.225 124.103 208.085 124.38C207.948 124.657 207.834 124.958 207.743 125.283C207.652 125.605 207.584 125.944 207.538 126.299C207.493 126.654 207.47 127.012 207.47 127.373C207.47 128.027 207.602 128.514 207.865 128.833C208.129 129.149 208.518 129.307 209.032 129.307C209.312 129.307 209.568 129.251 209.799 129.141C210.033 129.027 210.243 128.87 210.429 128.672C210.618 128.473 210.782 128.237 210.922 127.964C211.062 127.69 211.179 127.394 211.273 127.075C211.368 126.756 211.438 126.419 211.483 126.064C211.532 125.71 211.557 125.35 211.557 124.985ZM217.245 130C217.284 129.71 217.318 129.456 217.348 129.238C217.377 129.017 217.401 128.825 217.421 128.662C217.444 128.499 217.463 128.363 217.479 128.252C217.496 128.141 217.509 128.047 217.519 127.969C217.528 127.891 217.535 127.827 217.538 127.778C217.545 127.729 217.549 127.686 217.553 127.646C217.553 127.464 217.532 127.311 217.489 127.188C217.444 127.002 217.357 126.864 217.23 126.772C217.107 126.678 216.933 126.608 216.708 126.562C216.558 126.517 216.382 126.484 216.181 126.465C215.982 126.445 215.751 126.436 215.487 126.436H214.716L214.198 130H213.153L214.267 122.256H216.156C216.42 122.256 216.667 122.262 216.898 122.275C217.133 122.285 217.349 122.308 217.548 122.344C217.763 122.383 217.96 122.44 218.139 122.515C218.318 122.59 218.471 122.689 218.598 122.812C218.728 122.936 218.829 123.088 218.9 123.267C218.975 123.446 219.013 123.66 219.013 123.911C219.013 124.302 218.946 124.634 218.812 124.907C218.679 125.177 218.507 125.399 218.295 125.571C218.087 125.744 217.854 125.871 217.597 125.952C217.343 126.034 217.094 126.076 216.85 126.079C217.133 126.108 217.382 126.159 217.597 126.23C217.812 126.299 217.992 126.393 218.139 126.514C218.285 126.634 218.396 126.782 218.471 126.958C218.549 127.131 218.59 127.336 218.593 127.573C218.593 127.603 218.59 127.65 218.583 127.715C218.576 127.777 218.565 127.882 218.549 128.032C218.523 128.244 218.489 128.507 218.446 128.823C218.404 129.136 218.35 129.528 218.285 130H217.245ZM215.385 125.732C215.766 125.732 216.119 125.716 216.444 125.684C216.77 125.648 217.051 125.573 217.289 125.459C217.53 125.345 217.719 125.181 217.855 124.966C217.992 124.751 218.061 124.461 218.061 124.097C218.061 123.862 218.01 123.678 217.909 123.545C217.808 123.408 217.67 123.304 217.494 123.232C217.322 123.161 217.12 123.115 216.889 123.096C216.661 123.076 216.418 123.066 216.161 123.066H215.194L214.813 125.732H215.385ZM222.04 126.519L224.438 122.275H225.507L222.421 127.578L222.084 130H221.054L221.405 127.466L219.853 122.275H220.849L222.04 126.519ZM228.949 126.313L228.422 130H227.377L228.476 122.256H232.885L232.772 123.105H229.403L229.047 125.615H232.104L232.011 126.313H228.949ZM232.758 129.404H233.656L234.599 122.886H233.705L233.803 122.256H236.635L236.537 122.886H235.629L234.687 129.404H235.595L235.497 130H232.67L232.758 129.404ZM241.229 130H236.889L237.978 122.256H239.022L238.046 129.194H241.332L241.229 130ZM245.131 130L244.833 128.281L243.983 123.223L243.021 130H242.016L242.826 124.229L243.119 122.256H244.701L245.038 124.229L245.521 127.148L245.805 128.892L246.498 127.339L248.017 123.999L248.812 122.256H250.409L250.033 125.088L249.335 130H248.324L249.281 123.213L246.669 129.043L246.229 130H245.131ZM255.185 126.147C255.666 126.147 256.073 126.112 256.405 126.04C256.741 125.965 257.011 125.851 257.216 125.698C257.424 125.545 257.574 125.35 257.665 125.112C257.759 124.871 257.807 124.587 257.807 124.258C257.807 123.988 257.756 123.774 257.655 123.618C257.554 123.459 257.414 123.338 257.235 123.257C257.056 123.175 256.843 123.123 256.596 123.101C256.352 123.078 256.086 123.066 255.8 123.066H254.955L254.525 126.147H255.185ZM254.027 122.256H255.878C256.415 122.256 256.869 122.293 257.24 122.368C257.615 122.443 257.917 122.559 258.148 122.715C258.38 122.868 258.547 123.065 258.651 123.306C258.756 123.543 258.808 123.825 258.808 124.15C258.804 124.697 258.713 125.15 258.534 125.508C258.358 125.863 258.108 126.146 257.782 126.357C257.457 126.569 257.063 126.717 256.601 126.802C256.142 126.886 255.629 126.929 255.062 126.929H254.403L253.969 130H252.924L254.027 122.256ZM263.017 130C263.056 129.71 263.09 129.456 263.119 129.238C263.148 129.017 263.173 128.825 263.192 128.662C263.215 128.499 263.235 128.363 263.251 128.252C263.267 128.141 263.28 128.047 263.29 127.969C263.3 127.891 263.306 127.827 263.31 127.778C263.316 127.729 263.321 127.686 263.324 127.646C263.324 127.464 263.303 127.311 263.261 127.188C263.215 127.002 263.129 126.864 263.002 126.772C262.878 126.678 262.704 126.608 262.479 126.562C262.33 126.517 262.154 126.484 261.952 126.465C261.754 126.445 261.522 126.436 261.259 126.436H260.487L259.97 130H258.925L260.038 122.256H261.928C262.191 122.256 262.439 122.262 262.67 122.275C262.904 122.285 263.121 122.308 263.319 122.344C263.534 122.383 263.731 122.44 263.91 122.515C264.089 122.59 264.242 122.689 264.369 122.812C264.499 122.936 264.6 123.088 264.672 123.267C264.747 123.446 264.784 123.66 264.784 123.911C264.784 124.302 264.717 124.634 264.584 124.907C264.451 125.177 264.278 125.399 264.066 125.571C263.858 125.744 263.625 125.871 263.368 125.952C263.114 126.034 262.865 126.076 262.621 126.079C262.904 126.108 263.153 126.159 263.368 126.23C263.583 126.299 263.764 126.393 263.91 126.514C264.057 126.634 264.167 126.782 264.242 126.958C264.32 127.131 264.361 127.336 264.364 127.573C264.364 127.603 264.361 127.65 264.354 127.715C264.348 127.777 264.337 127.882 264.32 128.032C264.294 128.244 264.26 128.507 264.218 128.823C264.175 129.136 264.122 129.528 264.057 130H263.017ZM261.156 125.732C261.537 125.732 261.89 125.716 262.216 125.684C262.541 125.648 262.823 125.573 263.061 125.459C263.301 125.345 263.49 125.181 263.627 124.966C263.764 124.751 263.832 124.461 263.832 124.097C263.832 123.862 263.782 123.678 263.681 123.545C263.58 123.408 263.441 123.304 263.266 123.232C263.093 123.161 262.891 123.115 262.66 123.096C262.432 123.076 262.19 123.066 261.933 123.066H260.966L260.585 125.732H261.156ZM271.811 125C271.811 125.768 271.718 126.471 271.532 127.109C271.347 127.744 271.088 128.291 270.756 128.75C270.424 129.206 270.03 129.561 269.574 129.814C269.118 130.068 268.62 130.195 268.08 130.195C267.693 130.195 267.344 130.138 267.035 130.024C266.726 129.914 266.462 129.743 266.244 129.512C266.026 129.281 265.858 128.991 265.741 128.643C265.624 128.291 265.565 127.876 265.565 127.397C265.565 126.896 265.606 126.418 265.688 125.962C265.772 125.503 265.891 125.078 266.044 124.688C266.197 124.297 266.382 123.944 266.601 123.628C266.822 123.312 267.069 123.042 267.343 122.817C267.616 122.593 267.914 122.42 268.236 122.3C268.562 122.179 268.905 122.119 269.267 122.119C269.709 122.119 270.09 122.186 270.409 122.319C270.731 122.453 270.995 122.645 271.2 122.896C271.409 123.143 271.562 123.446 271.659 123.804C271.76 124.159 271.811 124.557 271.811 125ZM270.736 124.985C270.736 124.696 270.709 124.43 270.653 124.189C270.598 123.945 270.508 123.737 270.385 123.564C270.261 123.389 270.098 123.252 269.896 123.154C269.698 123.057 269.454 123.008 269.164 123.008C268.881 123.008 268.622 123.066 268.388 123.184C268.153 123.298 267.942 123.457 267.753 123.662C267.567 123.864 267.405 124.103 267.265 124.38C267.128 124.657 267.014 124.958 266.923 125.283C266.832 125.605 266.763 125.944 266.718 126.299C266.672 126.654 266.649 127.012 266.649 127.373C266.649 128.027 266.781 128.514 267.045 128.833C267.309 129.149 267.698 129.307 268.212 129.307C268.492 129.307 268.747 129.251 268.979 129.141C269.213 129.027 269.423 128.87 269.608 128.672C269.797 128.473 269.962 128.237 270.102 127.964C270.242 127.69 270.359 127.394 270.453 127.075C270.548 126.756 270.618 126.419 270.663 126.064C270.712 125.71 270.736 125.35 270.736 124.985ZM277.445 125.151C277.445 124.435 277.312 123.91 277.045 123.574C276.778 123.236 276.365 123.066 275.805 123.066H274.379L273.5 129.194H274.999C275.338 129.194 275.632 129.131 275.883 129.004C276.137 128.874 276.353 128.703 276.532 128.491C276.715 128.276 276.864 128.031 276.981 127.754C277.102 127.474 277.196 127.184 277.265 126.885C277.333 126.585 277.38 126.286 277.406 125.986C277.432 125.687 277.445 125.409 277.445 125.151ZM278.515 125.146C278.515 125.459 278.493 125.796 278.451 126.157C278.409 126.519 278.336 126.88 278.231 127.241C278.131 127.599 277.992 127.944 277.816 128.276C277.641 128.608 277.419 128.903 277.152 129.16C276.885 129.414 276.566 129.618 276.195 129.771C275.827 129.924 275.399 130 274.911 130H272.338L273.437 122.256H275.907C276.327 122.256 276.698 122.314 277.021 122.432C277.346 122.546 277.619 122.721 277.841 122.959C278.062 123.193 278.23 123.493 278.344 123.857C278.458 124.219 278.515 124.648 278.515 125.146ZM281.952 129.36C282.284 129.36 282.569 129.313 282.807 129.219C283.044 129.124 283.246 128.966 283.412 128.745C283.581 128.524 283.721 128.231 283.832 127.866C283.943 127.502 284.037 127.049 284.115 126.509L284.721 122.256H285.766L285.17 126.489C285.066 127.225 284.91 127.832 284.701 128.311C284.496 128.786 284.249 129.163 283.959 129.443C283.673 129.723 283.349 129.919 282.987 130.029C282.629 130.14 282.247 130.195 281.84 130.195C281.439 130.195 281.083 130.135 280.771 130.015C280.461 129.894 280.199 129.715 279.984 129.478C279.77 129.237 279.605 128.94 279.491 128.589C279.381 128.234 279.325 127.824 279.325 127.358C279.325 127.319 279.325 127.279 279.325 127.236C279.325 127.191 279.327 127.142 279.33 127.09C279.333 127.035 279.338 126.973 279.345 126.904C279.354 126.833 279.366 126.75 279.379 126.655C279.402 126.466 279.429 126.243 279.462 125.986C279.498 125.729 279.54 125.425 279.589 125.073C279.638 124.722 279.693 124.315 279.755 123.853C279.82 123.39 279.895 122.858 279.979 122.256H281.024C280.94 122.865 280.865 123.403 280.8 123.872C280.735 124.341 280.678 124.754 280.629 125.112C280.58 125.47 280.538 125.781 280.502 126.045C280.466 126.305 280.437 126.533 280.414 126.729C280.401 126.829 280.39 126.917 280.38 126.992C280.373 127.064 280.368 127.127 280.365 127.183C280.362 127.238 280.359 127.287 280.355 127.329C280.355 127.371 280.355 127.412 280.355 127.451C280.355 127.738 280.382 127.998 280.434 128.232C280.489 128.467 280.578 128.669 280.702 128.838C280.826 129.004 280.989 129.132 281.19 129.224C281.396 129.315 281.649 129.36 281.952 129.36ZM286.278 127.358C286.278 126.909 286.312 126.468 286.381 126.035C286.452 125.599 286.557 125.187 286.693 124.8C286.833 124.409 287.006 124.051 287.211 123.726C287.419 123.397 287.66 123.114 287.934 122.876C288.207 122.635 288.515 122.448 288.856 122.314C289.198 122.181 289.573 122.114 289.979 122.114C290.155 122.114 290.321 122.124 290.478 122.144C290.637 122.163 290.793 122.192 290.946 122.231C291.103 122.267 291.26 122.311 291.42 122.363C291.583 122.415 291.757 122.474 291.942 122.539L291.576 123.389C291.296 123.278 291.031 123.187 290.78 123.115C290.533 123.044 290.277 123.008 290.014 123.008C289.708 123.008 289.429 123.063 289.179 123.174C288.928 123.281 288.703 123.433 288.505 123.628C288.31 123.823 288.14 124.056 287.997 124.326C287.854 124.593 287.735 124.884 287.641 125.2C287.546 125.516 287.476 125.851 287.431 126.206C287.385 126.558 287.362 126.916 287.362 127.28C287.362 127.97 287.499 128.481 287.772 128.813C288.046 129.142 288.451 129.307 288.988 129.307C289.112 129.307 289.245 129.292 289.389 129.263C289.532 129.233 289.68 129.194 289.833 129.146C289.989 129.097 290.146 129.041 290.302 128.979C290.461 128.914 290.619 128.848 290.775 128.779L290.951 129.595C290.788 129.673 290.624 129.748 290.458 129.819C290.295 129.891 290.128 129.954 289.955 130.01C289.783 130.068 289.604 130.114 289.418 130.146C289.232 130.179 289.039 130.195 288.837 130.195C288.01 130.195 287.377 129.958 286.938 129.482C286.498 129.004 286.278 128.296 286.278 127.358ZM297.118 123.066H295.077L294.105 130H293.065L294.037 123.066H291.986L292.104 122.256H297.23L297.118 123.066Z" fill="#1D1D1D"/>
<path d="M107.448 130H105.233V122.98H106.791L107.289 124.047C107.457 123.578 107.696 123.246 108.004 123.051C108.317 122.855 108.7 122.758 109.153 122.758C109.375 122.758 109.58 122.775 109.768 122.811C109.959 122.846 110.133 122.904 110.289 122.986C110.45 123.064 110.592 123.168 110.717 123.297C110.846 123.426 110.957 123.586 111.051 123.777C111.172 123.602 111.301 123.449 111.438 123.32C111.575 123.191 111.725 123.086 111.889 123.004C112.057 122.922 112.244 122.861 112.451 122.822C112.658 122.779 112.895 122.758 113.16 122.758C113.524 122.758 113.842 122.818 114.116 122.939C114.389 123.057 114.617 123.23 114.801 123.461C114.985 123.688 115.121 123.967 115.211 124.299C115.305 124.631 115.352 125.01 115.352 125.436V130H113.131V125.26C113.131 124.564 112.899 124.217 112.434 124.217C112.336 124.217 112.244 124.23 112.158 124.258C112.076 124.281 111.996 124.318 111.918 124.369C111.84 124.416 111.76 124.475 111.678 124.545C111.6 124.615 111.518 124.693 111.432 124.779V130H109.217V125.189C109.217 124.834 109.164 124.582 109.059 124.434C108.953 124.285 108.783 124.211 108.549 124.211C108.424 124.211 108.301 124.236 108.18 124.287C108.063 124.338 107.955 124.402 107.858 124.48C107.76 124.555 107.674 124.637 107.6 124.727C107.53 124.816 107.479 124.902 107.448 124.984V130ZM119.295 130H117.08V122.98H118.639L119.137 124.047C119.305 123.578 119.543 123.246 119.852 123.051C120.164 122.855 120.547 122.758 121 122.758C121.223 122.758 121.428 122.775 121.616 122.811C121.807 122.846 121.981 122.904 122.137 122.986C122.297 123.064 122.44 123.168 122.565 123.297C122.694 123.426 122.805 123.586 122.899 123.777C123.02 123.602 123.149 123.449 123.285 123.32C123.422 123.191 123.573 123.086 123.737 123.004C123.905 122.922 124.092 122.861 124.299 122.822C124.506 122.779 124.742 122.758 125.008 122.758C125.371 122.758 125.69 122.818 125.963 122.939C126.237 123.057 126.465 123.23 126.649 123.461C126.832 123.688 126.969 123.967 127.059 124.299C127.153 124.631 127.2 125.01 127.2 125.436V130H124.979V125.26C124.979 124.564 124.746 124.217 124.282 124.217C124.184 124.217 124.092 124.23 124.006 124.258C123.924 124.281 123.844 124.318 123.766 124.369C123.688 124.416 123.608 124.475 123.526 124.545C123.448 124.615 123.366 124.693 123.28 124.779V130H121.065V125.189C121.065 124.834 121.012 124.582 120.907 124.434C120.801 124.285 120.631 124.211 120.397 124.211C120.272 124.211 120.149 124.236 120.028 124.287C119.91 124.338 119.803 124.402 119.705 124.48C119.608 124.555 119.522 124.637 119.448 124.727C119.377 124.816 119.326 124.902 119.295 124.984V130Z" fill="#1D1D1D"/>
<path d="M81.9737 122.32C81.9737 122.044 81.8591 121.841 81.6299 121.711C81.4008 121.576 81.1039 121.508 80.7393 121.508C80.4893 121.508 80.2315 121.536 79.9659 121.594C79.7055 121.651 79.4659 121.716 79.2471 121.789C79.0284 121.857 78.8435 121.922 78.6924 121.984C78.5466 122.042 78.4633 122.073 78.4424 122.078L77.4737 120.156C77.557 120.115 77.6898 120.047 77.8721 119.953C78.0544 119.859 78.2758 119.766 78.5362 119.672C78.8018 119.573 79.1013 119.487 79.4346 119.414C79.768 119.341 80.1273 119.305 80.5127 119.305C81.1273 119.305 81.6846 119.359 82.1846 119.469C82.6846 119.578 83.1117 119.758 83.4659 120.008C83.82 120.253 84.0935 120.576 84.2862 120.977C84.4841 121.372 84.5831 121.857 84.5831 122.43C84.5831 122.659 84.5492 122.888 84.4815 123.117C84.4138 123.341 84.3148 123.552 84.1846 123.75C84.0544 123.948 83.893 124.122 83.7002 124.273C83.5075 124.419 83.2862 124.523 83.0362 124.586C83.307 124.659 83.5544 124.779 83.7784 124.945C84.0075 125.112 84.2029 125.307 84.3643 125.531C84.5258 125.75 84.6508 125.99 84.7393 126.25C84.8279 126.505 84.8721 126.76 84.8721 127.016C84.8721 127.609 84.7654 128.12 84.5518 128.547C84.3435 128.974 84.0518 129.323 83.6768 129.594C83.3018 129.87 82.8565 130.073 82.3409 130.203C81.8252 130.333 81.2627 130.398 80.6534 130.398C80.2211 130.398 79.8279 130.372 79.4737 130.32C79.1247 130.273 78.8226 130.219 78.5674 130.156C78.3122 130.094 78.1065 130.034 77.9502 129.977C77.794 129.924 77.6976 129.891 77.6612 129.875L78.3643 127.75C78.406 127.766 78.4945 127.802 78.6299 127.859C78.7706 127.911 78.9398 127.966 79.1377 128.023C79.3409 128.076 79.5648 128.125 79.8096 128.172C80.0544 128.214 80.3044 128.234 80.5596 128.234C81.0909 128.234 81.4867 128.146 81.7471 127.969C82.0127 127.792 82.1456 127.484 82.1456 127.047C82.1456 126.797 82.0752 126.583 81.9346 126.406C81.794 126.224 81.6091 126.076 81.3799 125.961C81.156 125.841 80.9034 125.753 80.6221 125.695C80.3461 125.638 80.0674 125.609 79.7862 125.609V123.547C80.0622 123.547 80.3305 123.526 80.5909 123.484C80.8565 123.438 81.0909 123.367 81.294 123.273C81.4971 123.174 81.6612 123.047 81.7862 122.891C81.9112 122.734 81.9737 122.544 81.9737 122.32ZM87.4581 127.594C87.5987 127.651 87.7758 127.714 87.9893 127.781C88.2081 127.849 88.445 127.914 88.7002 127.977C88.9607 128.034 89.2315 128.083 89.5127 128.125C89.794 128.167 90.0726 128.188 90.3487 128.188C90.906 128.188 91.3331 128.07 91.6299 127.836C91.932 127.602 92.0831 127.229 92.0831 126.719C92.0831 126.167 91.9555 125.734 91.7002 125.422C91.445 125.109 91.0596 124.953 90.544 124.953C90.0232 124.953 89.3539 125.167 88.5362 125.594L87.3799 124.562V119.57H93.919V121.617H89.7471V123.297C89.7471 123.292 89.7758 123.273 89.8331 123.242C89.8956 123.206 89.9763 123.169 90.0752 123.133C90.1794 123.096 90.2966 123.065 90.4268 123.039C90.557 123.008 90.6924 122.992 90.8331 122.992C91.4164 122.992 91.9398 123.081 92.4034 123.258C92.8721 123.43 93.268 123.68 93.5909 124.008C93.9138 124.331 94.1612 124.724 94.3331 125.188C94.5101 125.646 94.5987 126.161 94.5987 126.734C94.5987 127.292 94.4971 127.799 94.294 128.258C94.0909 128.711 93.807 129.099 93.4424 129.422C93.0831 129.75 92.656 130.003 92.1612 130.18C91.6664 130.362 91.1273 130.453 90.544 130.453C90.2732 130.453 89.9867 130.432 89.6846 130.391C89.3877 130.354 89.0909 130.302 88.794 130.234C88.4971 130.172 88.2055 130.094 87.919 130C87.6325 129.911 87.3695 129.815 87.1299 129.711L87.4581 127.594Z" fill="black"/>
<path d="M175.744 139.488C175.694 139.45 175.623 139.409 175.532 139.365C175.443 139.32 175.343 139.278 175.231 139.239C175.119 139.2 175.001 139.168 174.875 139.143C174.75 139.118 174.628 139.105 174.51 139.105C174.282 139.105 174.088 139.126 173.929 139.167C173.769 139.208 173.638 139.266 173.536 139.341C173.435 139.417 173.362 139.508 173.317 139.615C173.271 139.722 173.249 139.841 173.249 139.974C173.249 140.065 173.262 140.143 173.29 140.209C173.317 140.273 173.358 140.33 173.413 140.38C173.467 140.431 173.535 140.476 173.614 140.517C173.696 140.558 173.791 140.599 173.898 140.64L174.698 140.951C174.86 141.015 175.002 141.088 175.125 141.17C175.25 141.25 175.355 141.342 175.439 141.447C175.524 141.549 175.588 141.667 175.631 141.799C175.674 141.929 175.696 142.076 175.696 142.24C175.696 142.49 175.655 142.731 175.573 142.961C175.491 143.189 175.364 143.39 175.193 143.566C175.022 143.739 174.806 143.878 174.544 143.983C174.282 144.085 173.972 144.137 173.614 144.137C173.455 144.137 173.299 144.125 173.146 144.103C172.993 144.08 172.851 144.051 172.719 144.017C172.589 143.983 172.475 143.945 172.377 143.904C172.279 143.863 172.205 143.823 172.155 143.785L172.305 143.156C172.389 143.208 172.477 143.257 172.568 143.303C172.662 143.346 172.761 143.384 172.866 143.416C172.973 143.447 173.087 143.472 173.208 143.491C173.328 143.507 173.459 143.515 173.601 143.515C174.056 143.515 174.396 143.422 174.619 143.238C174.842 143.053 174.954 142.768 174.954 142.383C174.954 142.288 174.94 142.203 174.913 142.13C174.888 142.057 174.849 141.993 174.797 141.936C174.747 141.876 174.685 141.825 174.612 141.782C174.539 141.736 174.455 141.694 174.359 141.655L173.498 141.293C173.343 141.229 173.202 141.157 173.074 141.078C172.887 140.961 172.747 140.822 172.654 140.661C172.56 140.497 172.514 140.312 172.514 140.107C172.514 139.852 172.566 139.624 172.671 139.423C172.776 139.223 172.915 139.053 173.088 138.914C173.261 138.773 173.46 138.666 173.686 138.593C173.912 138.518 174.145 138.48 174.387 138.48C174.544 138.48 174.697 138.49 174.845 138.511C174.993 138.529 175.132 138.556 175.262 138.593C175.394 138.627 175.515 138.668 175.624 138.716C175.733 138.761 175.829 138.812 175.911 138.866L175.744 139.488ZM180.501 144H179.521L178.895 142.455L177.658 139.341L177.005 144H176.294L177.063 138.579H178.051L178.669 140.121L179.91 143.238L180.56 138.579H181.271L180.501 144ZM185.017 140.606C185.017 140.105 184.923 139.737 184.736 139.502C184.549 139.265 184.26 139.146 183.868 139.146H182.87L182.255 143.436H183.304C183.541 143.436 183.747 143.392 183.923 143.303C184.101 143.212 184.252 143.092 184.377 142.944C184.505 142.793 184.61 142.621 184.692 142.428C184.776 142.232 184.842 142.029 184.89 141.819C184.938 141.61 184.971 141.4 184.989 141.19C185.007 140.981 185.017 140.786 185.017 140.606ZM185.765 140.603C185.765 140.821 185.75 141.057 185.721 141.31C185.691 141.563 185.64 141.816 185.567 142.069C185.496 142.319 185.399 142.561 185.276 142.793C185.153 143.026 184.998 143.232 184.812 143.412C184.625 143.59 184.401 143.732 184.142 143.839C183.884 143.946 183.584 144 183.243 144H181.441L182.21 138.579H183.94C184.234 138.579 184.494 138.62 184.719 138.702C184.947 138.782 185.139 138.905 185.293 139.071C185.448 139.235 185.566 139.445 185.646 139.7C185.725 139.953 185.765 140.254 185.765 140.603Z" fill="#1D1D1D"/>
<path d="M196.484 140.852C196.484 140.664 196.439 140.525 196.348 140.434C196.259 140.342 196.113 140.297 195.91 140.297C195.798 140.297 195.68 140.31 195.555 140.336C195.43 140.362 195.305 140.396 195.18 140.438C195.057 140.479 194.939 140.526 194.824 140.578C194.71 140.63 194.607 140.681 194.516 140.73L194.129 139.723C194.158 139.71 194.207 139.688 194.277 139.656C194.35 139.625 194.435 139.59 194.531 139.551C194.63 139.512 194.74 139.471 194.859 139.43C194.982 139.388 195.107 139.35 195.234 139.316C195.365 139.28 195.495 139.251 195.625 139.23C195.755 139.207 195.88 139.195 196 139.195C196.141 139.195 196.284 139.206 196.43 139.227C196.578 139.245 196.723 139.276 196.863 139.32C197.004 139.362 197.137 139.419 197.262 139.492C197.387 139.565 197.496 139.655 197.59 139.762C197.684 139.868 197.758 139.995 197.812 140.141C197.867 140.286 197.895 140.453 197.895 140.641C197.895 140.802 197.876 140.952 197.84 141.09C197.806 141.225 197.749 141.362 197.668 141.5C197.587 141.635 197.482 141.776 197.352 141.922C197.221 142.065 197.061 142.223 196.871 142.395L196.344 142.875H197.758V144H194.277V143.094L195.996 141.641C196.043 141.602 196.094 141.553 196.148 141.496C196.206 141.439 196.259 141.376 196.309 141.309C196.358 141.238 196.4 141.164 196.434 141.086C196.467 141.008 196.484 140.93 196.484 140.852ZM201.293 143.012C201.488 143.012 201.65 142.974 201.777 142.898C201.908 142.823 202.01 142.72 202.086 142.59C202.164 142.46 202.217 142.307 202.246 142.133C202.277 141.956 202.293 141.767 202.293 141.566C202.293 141.376 202.276 141.201 202.242 141.039C202.208 140.875 202.152 140.734 202.074 140.617C201.996 140.497 201.893 140.404 201.766 140.336C201.638 140.268 201.48 140.234 201.293 140.234C201.1 140.234 200.941 140.273 200.816 140.352C200.691 140.427 200.591 140.53 200.516 140.66C200.443 140.788 200.391 140.935 200.359 141.102C200.331 141.266 200.316 141.435 200.316 141.609C200.316 141.828 200.333 142.025 200.367 142.199C200.401 142.374 200.457 142.521 200.535 142.641C200.613 142.76 200.714 142.853 200.836 142.918C200.961 142.98 201.113 143.012 201.293 143.012ZM201.293 139.137C201.686 139.137 202.031 139.194 202.328 139.309C202.625 139.423 202.872 139.59 203.07 139.809C203.271 140.025 203.421 140.29 203.52 140.605C203.618 140.921 203.668 141.277 203.668 141.676C203.668 142.056 203.615 142.397 203.508 142.699C203.401 142.999 203.246 143.254 203.043 143.465C202.84 143.673 202.59 143.833 202.293 143.945C201.999 144.055 201.663 144.109 201.285 144.109C200.897 144.109 200.556 144.051 200.262 143.934C199.97 143.814 199.725 143.646 199.527 143.43C199.329 143.214 199.18 142.952 199.078 142.645C198.979 142.337 198.93 141.996 198.93 141.621C198.93 141.228 198.98 140.878 199.082 140.57C199.186 140.26 199.339 140 199.539 139.789C199.74 139.576 199.987 139.414 200.281 139.305C200.576 139.193 200.913 139.137 201.293 139.137ZM207.172 140.852C207.172 140.664 207.126 140.525 207.035 140.434C206.947 140.342 206.801 140.297 206.598 140.297C206.486 140.297 206.367 140.31 206.242 140.336C206.117 140.362 205.992 140.396 205.867 140.438C205.745 140.479 205.626 140.526 205.512 140.578C205.397 140.63 205.294 140.681 205.203 140.73L204.816 139.723C204.845 139.71 204.895 139.688 204.965 139.656C205.038 139.625 205.122 139.59 205.219 139.551C205.318 139.512 205.427 139.471 205.547 139.43C205.669 139.388 205.794 139.35 205.922 139.316C206.052 139.28 206.182 139.251 206.312 139.23C206.443 139.207 206.568 139.195 206.688 139.195C206.828 139.195 206.971 139.206 207.117 139.227C207.266 139.245 207.41 139.276 207.551 139.32C207.691 139.362 207.824 139.419 207.949 139.492C208.074 139.565 208.184 139.655 208.277 139.762C208.371 139.868 208.445 139.995 208.5 140.141C208.555 140.286 208.582 140.453 208.582 140.641C208.582 140.802 208.564 140.952 208.527 141.09C208.493 141.225 208.436 141.362 208.355 141.5C208.275 141.635 208.169 141.776 208.039 141.922C207.909 142.065 207.749 142.223 207.559 142.395L207.031 142.875H208.445V144H204.965V143.094L206.684 141.641C206.73 141.602 206.781 141.553 206.836 141.496C206.893 141.439 206.947 141.376 206.996 141.309C207.046 141.238 207.087 141.164 207.121 141.086C207.155 141.008 207.172 140.93 207.172 140.852ZM211.938 140.852C211.938 140.664 211.892 140.525 211.801 140.434C211.712 140.342 211.566 140.297 211.363 140.297C211.251 140.297 211.133 140.31 211.008 140.336C210.883 140.362 210.758 140.396 210.633 140.438C210.51 140.479 210.392 140.526 210.277 140.578C210.163 140.63 210.06 140.681 209.969 140.73L209.582 139.723C209.611 139.71 209.66 139.688 209.73 139.656C209.803 139.625 209.888 139.59 209.984 139.551C210.083 139.512 210.193 139.471 210.312 139.43C210.435 139.388 210.56 139.35 210.688 139.316C210.818 139.28 210.948 139.251 211.078 139.23C211.208 139.207 211.333 139.195 211.453 139.195C211.594 139.195 211.737 139.206 211.883 139.227C212.031 139.245 212.176 139.276 212.316 139.32C212.457 139.362 212.59 139.419 212.715 139.492C212.84 139.565 212.949 139.655 213.043 139.762C213.137 139.868 213.211 139.995 213.266 140.141C213.32 140.286 213.348 140.453 213.348 140.641C213.348 140.802 213.329 140.952 213.293 141.09C213.259 141.225 213.202 141.362 213.121 141.5C213.04 141.635 212.935 141.776 212.805 141.922C212.674 142.065 212.514 142.223 212.324 142.395L211.797 142.875H213.211V144H209.73V143.094L211.449 141.641C211.496 141.602 211.547 141.553 211.602 141.496C211.659 141.439 211.712 141.376 211.762 141.309C211.811 141.238 211.853 141.164 211.887 141.086C211.921 141.008 211.938 140.93 211.938 140.852ZM216.461 142.281H218.207V144H216.461V142.281ZM223.957 143.012C224.152 143.012 224.314 142.974 224.441 142.898C224.572 142.823 224.674 142.72 224.75 142.59C224.828 142.46 224.882 142.307 224.91 142.133C224.941 141.956 224.957 141.767 224.957 141.566C224.957 141.376 224.94 141.201 224.906 141.039C224.872 140.875 224.816 140.734 224.738 140.617C224.66 140.497 224.557 140.404 224.43 140.336C224.302 140.268 224.145 140.234 223.957 140.234C223.764 140.234 223.605 140.273 223.48 140.352C223.355 140.427 223.255 140.53 223.18 140.66C223.107 140.788 223.055 140.935 223.023 141.102C222.995 141.266 222.98 141.435 222.98 141.609C222.98 141.828 222.997 142.025 223.031 142.199C223.065 142.374 223.121 142.521 223.199 142.641C223.277 142.76 223.378 142.853 223.5 142.918C223.625 142.98 223.777 143.012 223.957 143.012ZM223.957 139.137C224.35 139.137 224.695 139.194 224.992 139.309C225.289 139.423 225.536 139.59 225.734 139.809C225.935 140.025 226.085 140.29 226.184 140.605C226.283 140.921 226.332 141.277 226.332 141.676C226.332 142.056 226.279 142.397 226.172 142.699C226.065 142.999 225.91 143.254 225.707 143.465C225.504 143.673 225.254 143.833 224.957 143.945C224.663 144.055 224.327 144.109 223.949 144.109C223.561 144.109 223.22 144.051 222.926 143.934C222.634 143.814 222.389 143.646 222.191 143.43C221.993 143.214 221.844 142.952 221.742 142.645C221.643 142.337 221.594 141.996 221.594 141.621C221.594 141.228 221.645 140.878 221.746 140.57C221.85 140.26 222.003 140 222.203 139.789C222.404 139.576 222.651 139.414 222.945 139.305C223.24 139.193 223.577 139.137 223.957 139.137ZM229.879 143.012C230.074 143.012 230.236 142.974 230.363 142.898C230.493 142.823 230.596 142.72 230.672 142.59C230.75 142.46 230.803 142.307 230.832 142.133C230.863 141.956 230.879 141.767 230.879 141.566C230.879 141.376 230.862 141.201 230.828 141.039C230.794 140.875 230.738 140.734 230.66 140.617C230.582 140.497 230.479 140.404 230.352 140.336C230.224 140.268 230.066 140.234 229.879 140.234C229.686 140.234 229.527 140.273 229.402 140.352C229.277 140.427 229.177 140.53 229.102 140.66C229.029 140.788 228.977 140.935 228.945 141.102C228.917 141.266 228.902 141.435 228.902 141.609C228.902 141.828 228.919 142.025 228.953 142.199C228.987 142.374 229.043 142.521 229.121 142.641C229.199 142.76 229.299 142.853 229.422 142.918C229.547 142.98 229.699 143.012 229.879 143.012ZM229.879 139.137C230.272 139.137 230.617 139.194 230.914 139.309C231.211 139.423 231.458 139.59 231.656 139.809C231.857 140.025 232.007 140.29 232.105 140.605C232.204 140.921 232.254 141.277 232.254 141.676C232.254 142.056 232.201 142.397 232.094 142.699C231.987 142.999 231.832 143.254 231.629 143.465C231.426 143.673 231.176 143.833 230.879 143.945C230.585 144.055 230.249 144.109 229.871 144.109C229.483 144.109 229.142 144.051 228.848 143.934C228.556 143.814 228.311 143.646 228.113 143.43C227.915 143.214 227.766 142.952 227.664 142.645C227.565 142.337 227.516 141.996 227.516 141.621C227.516 141.228 227.566 140.878 227.668 140.57C227.772 140.26 227.924 140 228.125 139.789C228.326 139.576 228.573 139.414 228.867 139.305C229.161 139.193 229.499 139.137 229.879 139.137Z" fill="#1D1D1D"/>
<path d="M180.115 150.783C180.115 151.049 180.068 151.274 179.975 151.46C179.881 151.644 179.741 151.793 179.556 151.908C179.37 152.021 179.137 152.104 178.855 152.154C178.576 152.205 178.251 152.23 177.88 152.23H177.537V154H176.696V149.307H177.971C178.164 149.307 178.351 149.315 178.53 149.333C178.712 149.349 178.882 149.378 179.04 149.421C179.198 149.464 179.343 149.521 179.474 149.594C179.604 149.664 179.717 149.754 179.811 149.863C179.906 149.973 179.98 150.104 180.033 150.256C180.086 150.406 180.113 150.582 180.115 150.783ZM177.851 151.688C178.085 151.688 178.291 151.674 178.469 151.645C178.646 151.613 178.794 151.564 178.911 151.498C179.03 151.43 179.119 151.341 179.178 151.231C179.238 151.122 179.269 150.987 179.269 150.827C179.269 150.622 179.237 150.457 179.175 150.332C179.112 150.207 179.023 150.11 178.908 150.042C178.795 149.972 178.657 149.926 178.495 149.904C178.335 149.881 178.157 149.869 177.962 149.869H177.537V151.688H177.851ZM182.09 151.381C182.309 151.381 182.496 151.364 182.652 151.331C182.809 151.298 182.937 151.248 183.036 151.182C183.136 151.113 183.209 151.029 183.256 150.93C183.303 150.828 183.326 150.71 183.326 150.575C183.326 150.411 183.292 150.282 183.224 150.188C183.157 150.095 183.064 150.024 182.945 149.978C182.828 149.929 182.69 149.898 182.532 149.887C182.374 149.875 182.204 149.869 182.022 149.869H181.586V151.381H182.09ZM182.866 151.647C183.079 151.671 183.268 151.71 183.432 151.765C183.598 151.819 183.736 151.895 183.848 151.99C183.961 152.086 184.046 152.204 184.103 152.345C184.161 152.485 184.19 152.651 184.19 152.843V154H183.355V152.784C183.355 152.587 183.323 152.431 183.259 152.315C183.196 152.198 183.106 152.11 182.989 152.052C182.874 151.991 182.734 151.952 182.57 151.935C182.408 151.917 182.228 151.908 182.028 151.908H181.586V154H180.745V149.307H182.061C182.439 149.307 182.763 149.33 183.03 149.377C183.298 149.424 183.517 149.496 183.687 149.594C183.856 149.689 183.98 149.812 184.059 149.96C184.137 150.108 184.176 150.284 184.176 150.487C184.176 150.69 184.143 150.864 184.076 151.009C184.012 151.151 183.921 151.27 183.804 151.363C183.688 151.455 183.551 151.524 183.391 151.571C183.23 151.616 183.056 151.642 182.866 151.647ZM188.904 151.63C188.904 151.979 188.869 152.306 188.799 152.608C188.729 152.909 188.613 153.171 188.453 153.394C188.295 153.614 188.086 153.788 187.826 153.915C187.566 154.042 187.247 154.105 186.868 154.105C186.616 154.105 186.391 154.076 186.191 154.018C185.992 153.959 185.817 153.876 185.667 153.769C185.517 153.661 185.389 153.531 185.283 153.379C185.178 153.227 185.092 153.058 185.025 152.872C184.961 152.687 184.913 152.486 184.882 152.271C184.853 152.055 184.838 151.829 184.838 151.595C184.838 151.226 184.881 150.895 184.967 150.602C185.053 150.307 185.181 150.058 185.351 149.854C185.521 149.651 185.731 149.496 185.983 149.389C186.237 149.279 186.532 149.225 186.868 149.225C187.206 149.225 187.502 149.279 187.756 149.389C188.012 149.496 188.225 149.653 188.395 149.86C188.564 150.067 188.691 150.32 188.775 150.619C188.861 150.916 188.904 151.253 188.904 151.63ZM185.688 151.674C185.688 151.953 185.709 152.204 185.752 152.427C185.797 152.649 185.866 152.839 185.96 152.995C186.056 153.151 186.178 153.271 186.326 153.355C186.477 153.438 186.657 153.479 186.868 153.479C187.073 153.479 187.25 153.439 187.398 153.361C187.549 153.281 187.672 153.165 187.768 153.013C187.865 152.858 187.937 152.67 187.981 152.447C188.028 152.223 188.052 151.965 188.052 151.674C188.052 151.381 188.029 151.121 187.984 150.895C187.939 150.668 187.869 150.477 187.773 150.32C187.678 150.164 187.556 150.046 187.407 149.966C187.261 149.884 187.085 149.843 186.88 149.843C186.669 149.843 186.488 149.883 186.338 149.963C186.188 150.043 186.063 150.161 185.966 150.317C185.87 150.472 185.8 150.663 185.755 150.892C185.71 151.118 185.688 151.379 185.688 151.674ZM190.363 151.697C190.363 151.984 190.388 152.239 190.437 152.462C190.487 152.683 190.562 152.869 190.662 153.021C190.764 153.172 190.892 153.286 191.046 153.364C191.2 153.442 191.383 153.481 191.594 153.481C191.717 153.481 191.834 153.47 191.945 153.446C192.059 153.423 192.162 153.395 192.256 153.361C192.35 153.328 192.432 153.293 192.502 153.256C192.574 153.217 192.63 153.184 192.669 153.156L192.9 153.751C192.873 153.774 192.818 153.807 192.736 153.848C192.656 153.887 192.556 153.926 192.435 153.965C192.315 154.002 192.179 154.034 192.024 154.062C191.872 154.089 191.711 154.103 191.541 154.103C191.209 154.103 190.917 154.048 190.665 153.938C190.413 153.829 190.201 153.671 190.029 153.464C189.859 153.257 189.73 153.004 189.643 152.705C189.557 152.404 189.514 152.063 189.514 151.683C189.514 151.462 189.53 151.248 189.563 151.041C189.599 150.834 189.652 150.64 189.725 150.458C189.797 150.274 189.888 150.107 189.997 149.957C190.108 149.805 190.239 149.675 190.39 149.567C190.54 149.458 190.712 149.373 190.905 149.312C191.099 149.252 191.314 149.222 191.553 149.222C191.697 149.222 191.838 149.231 191.975 149.251C192.111 149.269 192.237 149.292 192.353 149.321C192.468 149.349 192.569 149.38 192.657 149.415C192.745 149.448 192.812 149.481 192.859 149.515L192.643 150.121C192.596 150.09 192.537 150.059 192.467 150.027C192.398 149.994 192.32 149.965 192.232 149.939C192.145 149.912 192.047 149.89 191.939 149.872C191.834 149.854 191.722 149.846 191.603 149.846C191.386 149.846 191.199 149.888 191.043 149.972C190.889 150.054 190.761 150.174 190.659 150.332C190.558 150.49 190.482 150.685 190.434 150.915C190.387 151.144 190.363 151.404 190.363 151.697ZM193.507 154V149.307H196.542V149.869H194.348V151.293H196.264V151.803H194.348V153.446H196.577V154H193.507ZM200.377 152.714C200.377 152.911 200.345 153.095 200.28 153.265C200.216 153.433 200.114 153.579 199.976 153.704C199.837 153.829 199.659 153.927 199.442 153.997C199.226 154.067 198.966 154.103 198.663 154.103C198.456 154.103 198.261 154.082 198.077 154.041C197.896 154.002 197.734 153.958 197.594 153.909C197.43 153.853 197.279 153.787 197.143 153.713L197.286 153.104C197.286 153.107 197.307 153.119 197.348 153.139C197.389 153.158 197.444 153.182 197.515 153.209C197.587 153.234 197.67 153.263 197.764 153.294C197.857 153.325 197.957 153.354 198.062 153.379C198.17 153.404 198.279 153.426 198.391 153.443C198.504 153.461 198.613 153.47 198.719 153.47C198.848 153.47 198.964 153.458 199.067 153.435C199.173 153.411 199.262 153.374 199.334 153.323C199.408 153.271 199.465 153.203 199.504 153.121C199.545 153.039 199.565 152.938 199.565 152.819C199.565 152.644 199.518 152.498 199.422 152.383C199.326 152.268 199.181 152.173 198.985 152.099L197.98 151.706C197.842 151.651 197.713 151.587 197.594 151.513C197.475 151.438 197.371 151.353 197.283 151.255C197.197 151.155 197.129 151.043 197.078 150.918C197.029 150.793 197.005 150.652 197.005 150.496C197.005 150.271 197.049 150.079 197.137 149.919C197.227 149.759 197.346 149.627 197.494 149.523C197.645 149.42 197.818 149.344 198.016 149.295C198.215 149.246 198.423 149.222 198.64 149.222C198.829 149.222 199.006 149.237 199.17 149.269C199.336 149.3 199.484 149.337 199.615 149.38C199.748 149.421 199.86 149.463 199.952 149.506C200.044 149.549 200.11 149.582 200.151 149.605L199.981 150.186C199.946 150.164 199.887 150.135 199.803 150.098C199.721 150.059 199.623 150.021 199.51 149.983C199.398 149.946 199.276 149.914 199.144 149.887C199.011 149.859 198.876 149.846 198.739 149.846C198.601 149.846 198.474 149.855 198.358 149.875C198.245 149.893 198.147 149.924 198.065 149.969C197.983 150.014 197.919 150.074 197.872 150.15C197.827 150.227 197.805 150.321 197.805 150.435C197.805 150.487 197.812 150.538 197.825 150.587C197.841 150.636 197.866 150.683 197.901 150.728C197.937 150.771 197.983 150.812 198.042 150.854C198.103 150.893 198.179 150.93 198.271 150.965L199.267 151.337C199.427 151.397 199.575 151.47 199.712 151.554C199.849 151.638 199.966 151.736 200.063 151.85C200.161 151.961 200.237 152.089 200.292 152.233C200.349 152.376 200.377 152.536 200.377 152.714ZM204.227 152.714C204.227 152.911 204.194 153.095 204.13 153.265C204.065 153.433 203.964 153.579 203.825 153.704C203.687 153.829 203.509 153.927 203.292 153.997C203.075 154.067 202.815 154.103 202.513 154.103C202.306 154.103 202.11 154.082 201.927 154.041C201.745 154.002 201.584 153.958 201.443 153.909C201.279 153.853 201.129 153.787 200.992 153.713L201.136 153.104C201.136 153.107 201.156 153.119 201.197 153.139C201.238 153.158 201.294 153.182 201.364 153.209C201.437 153.234 201.52 153.263 201.613 153.294C201.707 153.325 201.807 153.354 201.912 153.379C202.02 153.404 202.129 153.426 202.24 153.443C202.354 153.461 202.463 153.47 202.568 153.47C202.697 153.47 202.813 153.458 202.917 153.435C203.022 153.411 203.111 153.374 203.184 153.323C203.258 153.271 203.314 153.203 203.354 153.121C203.395 153.039 203.415 152.938 203.415 152.819C203.415 152.644 203.367 152.498 203.271 152.383C203.176 152.268 203.03 152.173 202.835 152.099L201.83 151.706C201.691 151.651 201.562 151.587 201.443 151.513C201.324 151.438 201.221 151.353 201.133 151.255C201.047 151.155 200.979 151.043 200.928 150.918C200.879 150.793 200.854 150.652 200.854 150.496C200.854 150.271 200.898 150.079 200.986 149.919C201.076 149.759 201.195 149.627 201.344 149.523C201.494 149.42 201.668 149.344 201.865 149.295C202.064 149.246 202.272 149.222 202.489 149.222C202.679 149.222 202.855 149.237 203.02 149.269C203.186 149.3 203.334 149.337 203.465 149.38C203.598 149.421 203.71 149.463 203.802 149.506C203.894 149.549 203.96 149.582 204.001 149.605L203.831 150.186C203.796 150.164 203.736 150.135 203.652 150.098C203.57 150.059 203.473 150.021 203.359 149.983C203.248 149.946 203.126 149.914 202.993 149.887C202.86 149.859 202.726 149.846 202.589 149.846C202.45 149.846 202.323 149.855 202.208 149.875C202.095 149.893 201.997 149.924 201.915 149.969C201.833 150.014 201.769 150.074 201.722 150.15C201.677 150.227 201.654 150.321 201.654 150.435C201.654 150.487 201.661 150.538 201.675 150.587C201.69 150.636 201.716 150.683 201.751 150.728C201.786 150.771 201.833 150.812 201.892 150.854C201.952 150.893 202.028 150.93 202.12 150.965L203.116 151.337C203.276 151.397 203.425 151.47 203.562 151.554C203.698 151.638 203.815 151.736 203.913 151.85C204.011 151.961 204.087 152.089 204.142 152.233C204.198 152.376 204.227 152.536 204.227 152.714ZM208.683 149.307L210.235 154H209.386L209.04 152.913H207.297L206.951 154H206.102L207.643 149.307H208.683ZM207.408 152.506H208.929L208.179 150.153L207.408 152.506ZM210.824 152.392V151.765H213.013V152.392H210.824ZM217.838 151.63C217.838 151.979 217.803 152.306 217.732 152.608C217.662 152.909 217.547 153.171 217.387 153.394C217.229 153.614 217.02 153.788 216.76 153.915C216.5 154.042 216.181 154.105 215.802 154.105C215.55 154.105 215.324 154.076 215.125 154.018C214.926 153.959 214.751 153.876 214.601 153.769C214.45 153.661 214.322 153.531 214.217 153.379C214.111 153.227 214.025 153.058 213.959 152.872C213.895 152.687 213.847 152.486 213.815 152.271C213.786 152.055 213.771 151.829 213.771 151.595C213.771 151.226 213.814 150.895 213.9 150.602C213.986 150.307 214.114 150.058 214.284 149.854C214.454 149.651 214.665 149.496 214.917 149.389C215.171 149.279 215.466 149.225 215.802 149.225C216.14 149.225 216.436 149.279 216.689 149.389C216.945 149.496 217.158 149.653 217.328 149.86C217.498 150.067 217.625 150.32 217.709 150.619C217.795 150.916 217.838 151.253 217.838 151.63ZM214.621 151.674C214.621 151.953 214.643 152.204 214.686 152.427C214.73 152.649 214.8 152.839 214.894 152.995C214.989 153.151 215.111 153.271 215.26 153.355C215.41 153.438 215.591 153.479 215.802 153.479C216.007 153.479 216.184 153.439 216.332 153.361C216.482 153.281 216.605 153.165 216.701 153.013C216.799 152.858 216.87 152.67 216.915 152.447C216.962 152.223 216.985 151.965 216.985 151.674C216.985 151.381 216.963 151.121 216.918 150.895C216.873 150.668 216.803 150.477 216.707 150.32C216.611 150.164 216.489 150.046 216.341 149.966C216.194 149.884 216.019 149.843 215.813 149.843C215.603 149.843 215.422 149.883 215.271 149.963C215.121 150.043 214.997 150.161 214.899 150.317C214.804 150.472 214.733 150.663 214.688 150.892C214.644 151.118 214.621 151.379 214.621 151.674ZM222.514 151.63C222.514 151.979 222.479 152.306 222.408 152.608C222.338 152.909 222.223 153.171 222.062 153.394C221.904 153.614 221.695 153.788 221.436 153.915C221.176 154.042 220.856 154.105 220.478 154.105C220.226 154.105 220 154.076 219.801 154.018C219.602 153.959 219.427 153.876 219.276 153.769C219.126 153.661 218.998 153.531 218.893 153.379C218.787 153.227 218.701 153.058 218.635 152.872C218.57 152.687 218.522 152.486 218.491 152.271C218.462 152.055 218.447 151.829 218.447 151.595C218.447 151.226 218.49 150.895 218.576 150.602C218.662 150.307 218.79 150.058 218.96 149.854C219.13 149.651 219.341 149.496 219.593 149.389C219.847 149.279 220.142 149.225 220.478 149.225C220.815 149.225 221.111 149.279 221.365 149.389C221.621 149.496 221.834 149.653 222.004 149.86C222.174 150.067 222.301 150.32 222.385 150.619C222.471 150.916 222.514 151.253 222.514 151.63ZM219.297 151.674C219.297 151.953 219.318 152.204 219.361 152.427C219.406 152.649 219.476 152.839 219.569 152.995C219.665 153.151 219.787 153.271 219.936 153.355C220.086 153.438 220.267 153.479 220.478 153.479C220.683 153.479 220.859 153.439 221.008 153.361C221.158 153.281 221.281 153.165 221.377 153.013C221.475 152.858 221.546 152.67 221.591 152.447C221.638 152.223 221.661 151.965 221.661 151.674C221.661 151.381 221.639 151.121 221.594 150.895C221.549 150.668 221.479 150.477 221.383 150.32C221.287 150.164 221.165 150.046 221.017 149.966C220.87 149.884 220.694 149.843 220.489 149.843C220.278 149.843 220.098 149.883 219.947 149.963C219.797 150.043 219.673 150.161 219.575 150.317C219.479 150.472 219.409 150.663 219.364 150.892C219.319 151.118 219.297 151.379 219.297 151.674ZM227.189 151.63C227.189 151.979 227.154 152.306 227.084 152.608C227.014 152.909 226.898 153.171 226.738 153.394C226.58 153.614 226.371 153.788 226.111 153.915C225.852 154.042 225.532 154.105 225.153 154.105C224.901 154.105 224.676 154.076 224.477 154.018C224.277 153.959 224.103 153.876 223.952 153.769C223.802 153.661 223.674 153.531 223.568 153.379C223.463 153.227 223.377 153.058 223.311 152.872C223.246 152.687 223.198 152.486 223.167 152.271C223.138 152.055 223.123 151.829 223.123 151.595C223.123 151.226 223.166 150.895 223.252 150.602C223.338 150.307 223.466 150.058 223.636 149.854C223.806 149.651 224.017 149.496 224.269 149.389C224.522 149.279 224.817 149.225 225.153 149.225C225.491 149.225 225.787 149.279 226.041 149.389C226.297 149.496 226.51 149.653 226.68 149.86C226.85 150.067 226.977 150.32 227.061 150.619C227.146 150.916 227.189 151.253 227.189 151.63ZM223.973 151.674C223.973 151.953 223.994 152.204 224.037 152.427C224.082 152.649 224.151 152.839 224.245 152.995C224.341 153.151 224.463 153.271 224.611 153.355C224.762 153.438 224.942 153.479 225.153 153.479C225.358 153.479 225.535 153.439 225.684 153.361C225.834 153.281 225.957 153.165 226.053 153.013C226.15 152.858 226.222 152.67 226.267 152.447C226.313 152.223 226.337 151.965 226.337 151.674C226.337 151.381 226.314 151.121 226.27 150.895C226.225 150.668 226.154 150.477 226.059 150.32C225.963 150.164 225.841 150.046 225.692 149.966C225.546 149.884 225.37 149.843 225.165 149.843C224.954 149.843 224.773 149.883 224.623 149.963C224.473 150.043 224.349 150.161 224.251 150.317C224.155 150.472 224.085 150.663 224.04 150.892C223.995 151.118 223.973 151.379 223.973 151.674Z" fill="black"/>
<g filter="url(#filter4_i_233_4726)">
<path d="M147.031 54H137.703V15.7969H164.234V21.6797H147.031V31.4062H162.078V37.1484H147.031V54ZM170.258 49.7578V20.0625H166.227V15.7969H183.711V20.0625H179.633V49.7578H183.711V54H166.227V49.7578H170.258ZM189.266 54V15.7969H198.594V48.1172H214.977V54H189.266ZM226.156 28.5938V54H218.469V15.7969H229.25L238.531 43.6641L248.211 15.7969H259.016V54H251.328V28.5938L243.125 54H234.453L226.156 28.5938Z" fill="black"/>
</g>
<g filter="url(#filter5_d_233_4726)">
<path d="M74 77C74 67.0589 82.0589 59 92 59H305C314.941 59 323 67.0589 323 77V90C323 99.9411 314.941 108 305 108H92C82.0589 108 74 99.9411 74 90V77Z" fill="white"/>
<rect x="130" y="95" width="138" height="4" fill="#FFD43C"/>
<path d="M167.368 83.544L167.8 85.512C169.352 85.112 171.32 84.6 173.144 84.088L172.904 82.232C170.92 82.728 168.824 83.256 167.368 83.544ZM167.592 78.456V80.328H172.968V78.456H167.592ZM169.4 75.416V88.328C169.4 88.552 169.32 88.616 169.128 88.616C168.936 88.616 168.344 88.616 167.8 88.6C168.024 89.128 168.28 89.912 168.328 90.408C169.416 90.424 170.136 90.376 170.664 90.056C171.208 89.752 171.368 89.272 171.368 88.344V75.416H169.4ZM173.576 78.248V90.36H175.496V80.072H179.8V90.248H181.8V78.248H173.576ZM174.76 82.936V84.744H180.584V82.936H174.76ZM174.76 87.72V89.544H180.584V87.72H174.76ZM176.792 75.448C176.664 76.536 176.328 78.008 176.008 79L177.784 79.304C178.184 78.392 178.664 77.016 179.064 75.688L176.792 75.448ZM188.968 75.848V77.224H197.864V75.848H188.968ZM191.368 77.736V78.696H195.768V77.736H191.368ZM191.368 79.208V80.168H195.768V79.208H191.368ZM187.608 88.152L187.816 89.464C189.064 89.352 190.6 89.224 192.104 89.064L192.088 87.816C190.424 87.944 188.776 88.072 187.608 88.152ZM188.84 80.84L189 82.216C191.304 82.136 194.696 81.992 197.88 81.832L197.912 80.536C194.616 80.664 191.08 80.792 188.84 80.84ZM188.312 82.712V83.96H193.032V82.712H188.312ZM189.48 84.52V85.608H192.056V84.52H189.48ZM189.48 86.168V87.272H192.056V86.168H189.48ZM190.296 76.6V81.48H191.96V76.6H190.296ZM194.872 76.584V82.44H196.616V76.584H194.872ZM188.824 83.224V88.68H190.152V83.224H188.824ZM192.872 88.072L193.096 89.4C194.616 89.256 196.584 89.096 198.52 88.888L198.504 87.704C196.408 87.848 194.312 87.992 192.872 88.072ZM193.272 82.712V83.96H198.504V82.712H193.272ZM194.424 84.52V85.608H197.048V84.52H194.424ZM194.424 86.168V87.272H197.048V86.168H194.424ZM193.704 83.224V88.632H195.08V83.224H193.704ZM191.304 83.24V90.424H192.696V83.24H191.304ZM196.392 83.24V90.424H197.832V83.24H196.392ZM183.32 83.112L183.768 84.952C185.192 84.488 186.984 83.912 188.648 83.352L188.36 81.64C186.536 82.2 184.616 82.776 183.32 83.112ZM183.576 78.296V80.056H188.472V78.296H183.576ZM185.272 75.432V88.408C185.272 88.632 185.192 88.68 185 88.68C184.808 88.696 184.248 88.696 183.672 88.664C183.896 89.192 184.12 89.976 184.168 90.456C185.208 90.456 185.896 90.392 186.376 90.088C186.872 89.8 187.032 89.304 187.032 88.408V75.432H185.272ZM199.544 81.032V82.488H208.872V81.032H199.544ZM203.32 80.088V81.848H205.064V80.088H203.32ZM202.328 84.376H206.072V85.352H202.328V84.376ZM200.68 83.144V86.584H207.816V83.144H200.68ZM202.296 78.648H206.168V79.288H202.296V78.648ZM202.296 77.016H206.168V77.64H202.296V77.016ZM200.584 75.944V80.344H207.944V75.944H200.584ZM203.32 85.768V88.76C203.32 88.936 203.272 88.968 203.08 88.968C202.872 88.984 202.232 88.984 201.64 88.952C201.88 89.352 202.216 89.976 202.328 90.424C203.208 90.424 203.848 90.408 204.392 90.168C204.92 89.928 205.064 89.544 205.064 88.808V85.768H203.32ZM201.016 86.824C200.664 87.656 200.04 88.536 199.352 89.112C199.736 89.336 200.408 89.768 200.728 90.04C201.416 89.352 202.168 88.28 202.616 87.24L201.016 86.824ZM205.56 87.528C206.152 88.232 206.856 89.208 207.176 89.832L208.664 89.048C208.312 88.44 207.576 87.496 206.984 86.824L205.56 87.528ZM212.136 75.672C211.304 76.888 209.688 78.136 208.328 78.84C208.808 79.192 209.368 79.784 209.688 80.2C211.224 79.288 212.856 77.912 213.96 76.408L212.136 75.672ZM212.424 80.136C211.528 81.384 209.816 82.664 208.392 83.4C208.888 83.768 209.448 84.344 209.768 84.76C211.336 83.816 213.048 82.424 214.216 80.888L212.424 80.136ZM212.76 84.488C211.784 86.408 209.848 87.96 207.816 88.84C208.296 89.272 208.872 89.944 209.16 90.44C211.464 89.256 213.416 87.496 214.664 85.144L212.76 84.488ZM218.584 79.4V81.4H229.384V79.4H218.584ZM223.528 75.432V80.216H225.592V75.432H223.528ZM217.576 75.752V81.16C217.576 83.848 217.352 86.808 215.368 88.952C215.832 89.304 216.552 90.056 216.872 90.536C219.304 87.96 219.592 84.424 219.592 81.176V75.752H217.576ZM218.536 83.432V85.448H225.384V90.44H227.496V83.432H218.536Z" fill="black"/>
</g>
<g filter="url(#filter6_i_233_4726)">
<rect x="54.8633" y="161" width="294.777" height="29" rx="11" fill="#1D1D1D"/>
</g>
<g filter="url(#filter7_i_233_4726)">
<path d="M126.316 181H123.514V165.355H133.445V167.23H126.316V172.045H132.713V173.744H126.316V181ZM136.473 179.604V166.791H134.617V165.355H141.092V166.791H139.217V179.604H141.092V181H134.617V179.604H136.473ZM143.436 181V165.355H146.238V179.125H153.309V181H143.436ZM157.742 168.422V181H155.252V165.355H159.051L163.338 177.934L167.703 165.355H171.512V181H169.021V168.422L164.734 181H162.049L157.742 168.422ZM195.984 170.277C195.984 171.163 195.828 171.915 195.516 172.533C195.203 173.145 194.738 173.643 194.119 174.027C193.501 174.405 192.723 174.678 191.785 174.848C190.854 175.017 189.77 175.102 188.533 175.102H187.391V181H184.588V165.355H188.836C189.48 165.355 190.102 165.385 190.701 165.443C191.307 165.495 191.873 165.593 192.4 165.736C192.928 165.88 193.41 166.072 193.846 166.312C194.282 166.547 194.656 166.846 194.969 167.211C195.288 167.576 195.535 168.012 195.711 168.52C195.887 169.021 195.978 169.607 195.984 170.277ZM188.436 173.295C189.217 173.295 189.904 173.246 190.496 173.148C191.089 173.044 191.58 172.882 191.971 172.66C192.368 172.432 192.664 172.136 192.859 171.771C193.061 171.407 193.162 170.958 193.162 170.424C193.162 169.74 193.058 169.19 192.85 168.773C192.641 168.357 192.345 168.035 191.961 167.807C191.583 167.572 191.124 167.419 190.584 167.348C190.05 167.27 189.458 167.23 188.807 167.23H187.391V173.295H188.436ZM202.566 172.27C203.296 172.27 203.921 172.214 204.441 172.104C204.962 171.993 205.389 171.827 205.721 171.605C206.053 171.378 206.297 171.098 206.453 170.766C206.609 170.427 206.688 170.033 206.688 169.584C206.688 169.037 206.574 168.607 206.346 168.295C206.124 167.982 205.815 167.748 205.418 167.592C205.027 167.429 204.568 167.328 204.041 167.289C203.514 167.25 202.947 167.23 202.342 167.23H200.887V172.27H202.566ZM205.154 173.158C205.864 173.236 206.492 173.367 207.039 173.549C207.592 173.731 208.055 173.982 208.426 174.301C208.803 174.62 209.087 175.014 209.275 175.482C209.471 175.951 209.568 176.505 209.568 177.143V181H206.785V176.947C206.785 176.29 206.678 175.769 206.463 175.385C206.255 174.994 205.955 174.701 205.564 174.506C205.18 174.304 204.715 174.174 204.168 174.115C203.628 174.057 203.025 174.027 202.361 174.027H200.887V181H198.084V165.355H202.469C203.732 165.355 204.809 165.434 205.701 165.59C206.593 165.746 207.322 165.987 207.889 166.312C208.455 166.632 208.868 167.038 209.129 167.533C209.389 168.028 209.52 168.614 209.52 169.291C209.52 169.968 209.409 170.548 209.188 171.029C208.973 171.505 208.67 171.898 208.279 172.211C207.895 172.517 207.436 172.748 206.902 172.904C206.368 173.054 205.786 173.139 205.154 173.158ZM225.281 173.1C225.281 174.265 225.164 175.352 224.93 176.361C224.695 177.364 224.311 178.236 223.777 178.979C223.25 179.714 222.553 180.294 221.688 180.717C220.822 181.14 219.757 181.352 218.494 181.352C217.654 181.352 216.902 181.254 216.238 181.059C215.574 180.863 214.992 180.587 214.49 180.229C213.989 179.87 213.562 179.438 213.211 178.93C212.859 178.422 212.573 177.859 212.352 177.24C212.137 176.622 211.977 175.954 211.873 175.238C211.775 174.516 211.727 173.764 211.727 172.982C211.727 171.752 211.87 170.648 212.156 169.672C212.443 168.689 212.869 167.859 213.436 167.182C214.002 166.505 214.705 165.987 215.545 165.629C216.391 165.264 217.374 165.082 218.494 165.082C219.62 165.082 220.607 165.264 221.453 165.629C222.306 165.987 223.016 166.511 223.582 167.201C224.148 167.891 224.572 168.734 224.852 169.73C225.138 170.72 225.281 171.843 225.281 173.1ZM214.559 173.246C214.559 174.177 214.63 175.014 214.773 175.756C214.923 176.498 215.154 177.13 215.467 177.65C215.786 178.171 216.193 178.572 216.688 178.852C217.189 179.125 217.791 179.262 218.494 179.262C219.178 179.262 219.767 179.132 220.262 178.871C220.763 178.604 221.173 178.217 221.492 177.709C221.818 177.195 222.055 176.566 222.205 175.824C222.361 175.076 222.439 174.216 222.439 173.246C222.439 172.27 222.365 171.404 222.215 170.648C222.065 169.893 221.831 169.255 221.512 168.734C221.193 168.214 220.786 167.82 220.291 167.553C219.803 167.279 219.217 167.143 218.533 167.143C217.83 167.143 217.228 167.276 216.727 167.543C216.225 167.81 215.812 168.204 215.486 168.725C215.167 169.239 214.933 169.877 214.783 170.639C214.633 171.394 214.559 172.263 214.559 173.246ZM237.518 173.197C237.518 172.253 237.443 171.41 237.293 170.668C237.15 169.926 236.902 169.301 236.551 168.793C236.206 168.285 235.74 167.898 235.154 167.631C234.568 167.364 233.836 167.23 232.957 167.23H230.613V179.125H232.85C233.689 179.125 234.406 178.992 234.998 178.725C235.59 178.458 236.072 178.07 236.443 177.562C236.814 177.055 237.085 176.433 237.254 175.697C237.43 174.962 237.518 174.128 237.518 173.197ZM240.359 173.188C240.359 174.346 240.229 175.404 239.969 176.361C239.715 177.318 239.298 178.142 238.719 178.832C238.139 179.516 237.381 180.049 236.443 180.434C235.512 180.811 234.37 181 233.016 181H227.83V165.355H232.928C235.395 165.355 237.251 165.993 238.494 167.27C239.738 168.539 240.359 170.512 240.359 173.188ZM249.09 179.262C249.852 179.262 250.464 179.151 250.926 178.93C251.388 178.702 251.743 178.363 251.99 177.914C252.244 177.465 252.41 176.908 252.488 176.244C252.573 175.574 252.615 174.796 252.615 173.91V165.355H255.418V173.871C255.418 175.082 255.301 176.153 255.066 177.084C254.839 178.008 254.471 178.786 253.963 179.418C253.462 180.049 252.811 180.528 252.01 180.854C251.215 181.179 250.255 181.342 249.129 181.342C247.964 181.342 246.977 181.179 246.17 180.854C245.363 180.528 244.705 180.049 244.197 179.418C243.689 178.786 243.322 178.008 243.094 177.084C242.866 176.153 242.752 175.082 242.752 173.871V165.355H245.555V173.91C245.555 174.796 245.604 175.574 245.701 176.244C245.799 176.908 245.978 177.465 246.238 177.914C246.499 178.363 246.857 178.702 247.312 178.93C247.775 179.151 248.367 179.262 249.09 179.262ZM260.672 173.324C260.672 174.281 260.753 175.131 260.916 175.873C261.085 176.609 261.336 177.23 261.668 177.738C262.007 178.24 262.433 178.62 262.947 178.881C263.462 179.141 264.07 179.271 264.773 179.271C265.184 179.271 265.574 179.232 265.945 179.154C266.323 179.076 266.668 178.982 266.98 178.871C267.293 178.76 267.566 178.643 267.801 178.52C268.042 178.389 268.227 178.279 268.357 178.188L269.129 180.17C269.038 180.248 268.855 180.355 268.582 180.492C268.315 180.622 267.98 180.753 267.576 180.883C267.179 181.007 266.723 181.114 266.209 181.205C265.701 181.296 265.164 181.342 264.598 181.342C263.491 181.342 262.518 181.16 261.678 180.795C260.838 180.43 260.132 179.903 259.559 179.213C258.992 178.523 258.562 177.68 258.27 176.684C257.983 175.681 257.84 174.545 257.84 173.275C257.84 172.54 257.895 171.827 258.006 171.137C258.123 170.447 258.302 169.799 258.543 169.193C258.784 168.581 259.087 168.025 259.451 167.523C259.822 167.016 260.258 166.583 260.76 166.225C261.261 165.86 261.834 165.577 262.479 165.375C263.123 165.173 263.842 165.072 264.637 165.072C265.118 165.072 265.587 165.105 266.043 165.17C266.499 165.229 266.919 165.307 267.303 165.404C267.687 165.495 268.025 165.6 268.318 165.717C268.611 165.827 268.836 165.938 268.992 166.049L268.27 168.07C268.113 167.966 267.918 167.862 267.684 167.758C267.456 167.647 267.195 167.549 266.902 167.465C266.609 167.374 266.284 167.299 265.926 167.24C265.574 167.182 265.2 167.152 264.803 167.152C264.08 167.152 263.458 167.292 262.938 167.572C262.423 167.846 261.997 168.246 261.658 168.773C261.32 169.301 261.069 169.949 260.906 170.717C260.75 171.479 260.672 172.348 260.672 173.324ZM276.99 167.23V181H274.188V167.23H269.9V165.355H281.238V167.23H276.99Z" fill="#F9A21F"/>
</g>
</g>
<defs>
<filter id="filter0_d_233_4726" x="0" y="0" width="423" height="212" filterUnits="userSpaceOnUse" color-interpolation-filters="sRGB">
<feFlood flood-opacity="0" result="BackgroundImageFix"/>
<feColorMatrix in="SourceAlpha" type="matrix" values="0 0 0 0 0 0 0 0 0 0 0 0 0 0 0 0 0 0 127 0" result="hardAlpha"/>
<feOffset dy="18"/>
<feGaussianBlur stdDeviation="2"/>
<feComposite in2="hardAlpha" operator="out"/>
<feColorMatrix type="matrix" values="0 0 0 0 0 0 0 0 0 0 0 0 0 0 0 0 0 0 0.15 0"/>
<feBlend mode="normal" in2="BackgroundImageFix" result="effect1_dropShadow_233_4726"/>
<feBlend mode="normal" in="SourceGraphic" in2="effect1_dropShadow_233_4726" result="shape"/>
</filter>
<filter id="filter1_iii_233_4726" x="0" y="41" width="111.507" height="85" filterUnits="userSpaceOnUse" color-interpolation-filters="sRGB">
<feFlood flood-opacity="0" result="BackgroundImageFix"/>
<feBlend mode="normal" in="SourceGraphic" in2="BackgroundImageFix" result="shape"/>
<feColorMatrix in="SourceAlpha" type="matrix" values="0 0 0 0 0 0 0 0 0 0 0 0 0 0 0 0 0 0 127 0" result="hardAlpha"/>
<feOffset dy="-4"/>
<feGaussianBlur stdDeviation="2"/>
<feComposite in2="hardAlpha" operator="arithmetic" k2="-1" k3="1"/>
<feColorMatrix type="matrix" values="0 0 0 0 0 0 0 0 0 0 0 0 0 0 0 0 0 0 0.25 0"/>
<feBlend mode="normal" in2="shape" result="effect1_innerShadow_233_4726"/>
<feColorMatrix in="SourceAlpha" type="matrix" values="0 0 0 0 0 0 0 0 0 0 0 0 0 0 0 0 0 0 127 0" result="hardAlpha"/>
<feOffset dy="38"/>
<feGaussianBlur stdDeviation="2"/>
<feComposite in2="hardAlpha" operator="arithmetic" k2="-1" k3="1"/>
<feColorMatrix type="matrix" values="0 0 0 0 1 0 0 0 0 1 0 0 0 0 1 0 0 0 0.25 0"/>
<feBlend mode="normal" in2="effect1_innerShadow_233_4726" result="effect2_innerShadow_233_4726"/>
<feColorMatrix in="SourceAlpha" type="matrix" values="0 0 0 0 0 0 0 0 0 0 0 0 0 0 0 0 0 0 127 0" result="hardAlpha"/>
<feOffset dx="-5" dy="28"/>
<feGaussianBlur stdDeviation="2"/>
<feComposite in2="hardAlpha" operator="arithmetic" k2="-1" k3="1"/>
<feColorMatrix type="matrix" values="0 0 0 0 0.00416667 0 0 0 0 0.00416667 0 0 0 0 0.00416667 0 0 0 1 0"/>
<feBlend mode="normal" in2="effect2_innerShadow_233_4726" result="effect3_innerShadow_233_4726"/>
</filter>
<filter id="filter2_iiii_233_4726" x="37.5234" y="-4" width="329.457" height="188" filterUnits="userSpaceOnUse" color-interpolation-filters="sRGB">
<feFlood flood-opacity="0" result="BackgroundImageFix"/>
<feBlend mode="normal" in="SourceGraphic" in2="BackgroundImageFix" result="shape"/>
<feColorMatrix in="SourceAlpha" type="matrix" values="0 0 0 0 0 0 0 0 0 0 0 0 0 0 0 0 0 0 127 0" result="hardAlpha"/>
<feOffset dy="-66"/>
<feGaussianBlur stdDeviation="2"/>
<feComposite in2="hardAlpha" operator="arithmetic" k2="-1" k3="1"/>
<feColorMatrix type="matrix" values="0 0 0 0 0 0 0 0 0 0 0 0 0 0 0 0 0 0 0.25 0"/>
<feBlend mode="normal" in2="shape" result="effect1_innerShadow_233_4726"/>
<feColorMatrix in="SourceAlpha" type="matrix" values="0 0 0 0 0 0 0 0 0 0 0 0 0 0 0 0 0 0 127 0" result="hardAlpha"/>
<feOffset dy="4"/>
<feGaussianBlur stdDeviation="4"/>
<feComposite in2="hardAlpha" operator="arithmetic" k2="-1" k3="1"/>
<feColorMatrix type="matrix" values="0 0 0 0 1 0 0 0 0 1 0 0 0 0 1 0 0 0 0.25 0"/>
<feBlend mode="normal" in2="effect1_innerShadow_233_4726" result="effect2_innerShadow_233_4726"/>
<feColorMatrix in="SourceAlpha" type="matrix" values="0 0 0 0 0 0 0 0 0 0 0 0 0 0 0 0 0 0 127 0" result="hardAlpha"/>
<feOffset dy="9"/>
<feGaussianBlur stdDeviation="2"/>
<feComposite in2="hardAlpha" operator="arithmetic" k2="-1" k3="1"/>
<feColorMatrix type="matrix" values="0 0 0 0 1 0 0 0 0 1 0 0 0 0 1 0 0 0 0.25 0"/>
<feBlend mode="normal" in2="effect2_innerShadow_233_4726" result="effect3_innerShadow_233_4726"/>
<feColorMatrix in="SourceAlpha" type="matrix" values="0 0 0 0 0 0 0 0 0 0 0 0 0 0 0 0 0 0 127 0" result="hardAlpha"/>
<feOffset dy="4"/>
<feGaussianBlur stdDeviation="2"/>
<feComposite in2="hardAlpha" operator="arithmetic" k2="-1" k3="1"/>
<feColorMatrix type="matrix" values="0 0 0 0 0 0 0 0 0 0 0 0 0 0 0 0 0 0 1 0"/>
<feBlend mode="normal" in2="effect3_innerShadow_233_4726" result="effect4_innerShadow_233_4726"/>
</filter>
<filter id="filter3_i_233_4726" x="51.3955" y="3" width="301.713" height="177" filterUnits="userSpaceOnUse" color-interpolation-filters="sRGB">
<feFlood flood-opacity="0" result="BackgroundImageFix"/>
<feBlend mode="normal" in="SourceGraphic" in2="BackgroundImageFix" result="shape"/>
<feColorMatrix in="SourceAlpha" type="matrix" values="0 0 0 0 0 0 0 0 0 0 0 0 0 0 0 0 0 0 127 0" result="hardAlpha"/>
<feOffset dy="-74"/>
<feComposite in2="hardAlpha" operator="arithmetic" k2="-1" k3="1"/>
<feColorMatrix type="matrix" values="0 0 0 0 0 0 0 0 0 0 0 0 0 0 0 0 0 0 0.25 0"/>
<feBlend mode="normal" in2="shape" result="effect1_innerShadow_233_4726"/>
</filter>
<filter id="filter4_i_233_4726" x="137.703" y="15.7969" width="121.312" height="44.2031" filterUnits="userSpaceOnUse" color-interpolation-filters="sRGB">
<feFlood flood-opacity="0" result="BackgroundImageFix"/>
<feBlend mode="normal" in="SourceGraphic" in2="BackgroundImageFix" result="shape"/>
<feColorMatrix in="SourceAlpha" type="matrix" values="0 0 0 0 0 0 0 0 0 0 0 0 0 0 0 0 0 0 127 0" result="hardAlpha"/>
<feOffset dy="6"/>
<feGaussianBlur stdDeviation="3.5"/>
<feComposite in2="hardAlpha" operator="arithmetic" k2="-1" k3="1"/>
<feColorMatrix type="matrix" values="0 0 0 0 1 0 0 0 0 1 0 0 0 0 1 0 0 0 0.25 0"/>
<feBlend mode="normal" in2="shape" result="effect1_innerShadow_233_4726"/>
</filter>
<filter id="filter5_d_233_4726" x="70" y="57" width="257" height="57" filterUnits="userSpaceOnUse" color-interpolation-filters="sRGB">
<feFlood flood-opacity="0" result="BackgroundImageFix"/>
<feColorMatrix in="SourceAlpha" type="matrix" values="0 0 0 0 0 0 0 0 0 0 0 0 0 0 0 0 0 0 127 0" result="hardAlpha"/>
<feOffset dy="2"/>
<feGaussianBlur stdDeviation="2"/>
<feComposite in2="hardAlpha" operator="out"/>
<feColorMatrix type="matrix" values="0 0 0 0 0 0 0 0 0 0 0 0 0 0 0 0 0 0 0.25 0"/>
<feBlend mode="normal" in2="BackgroundImageFix" result="effect1_dropShadow_233_4726"/>
<feBlend mode="normal" in="SourceGraphic" in2="effect1_dropShadow_233_4726" result="shape"/>
</filter>
<filter id="filter6_i_233_4726" x="54.8633" y="161" width="294.777" height="33" filterUnits="userSpaceOnUse" color-interpolation-filters="sRGB">
<feFlood flood-opacity="0" result="BackgroundImageFix"/>
<feBlend mode="normal" in="SourceGraphic" in2="BackgroundImageFix" result="shape"/>
<feColorMatrix in="SourceAlpha" type="matrix" values="0 0 0 0 0 0 0 0 0 0 0 0 0 0 0 0 0 0 127 0" result="hardAlpha"/>
<feOffset dy="4"/>
<feGaussianBlur stdDeviation="2"/>
<feComposite in2="hardAlpha" operator="arithmetic" k2="-1" k3="1"/>
<feColorMatrix type="matrix" values="0 0 0 0 0 0 0 0 0 0 0 0 0 0 0 0 0 0 1 0"/>
<feBlend mode="normal" in2="shape" result="effect1_innerShadow_233_4726"/>
</filter>
<filter id="filter7_i_233_4726" x="123.514" y="165.072" width="157.725" height="18.2793" filterUnits="userSpaceOnUse" color-interpolation-filters="sRGB">
<feFlood flood-opacity="0" result="BackgroundImageFix"/>
<feBlend mode="normal" in="SourceGraphic" in2="BackgroundImageFix" result="shape"/>
<feColorMatrix in="SourceAlpha" type="matrix" values="0 0 0 0 0 0 0 0 0 0 0 0 0 0 0 0 0 0 127 0" result="hardAlpha"/>
<feOffset dy="2"/>
<feGaussianBlur stdDeviation="1"/>
<feComposite in2="hardAlpha" operator="arithmetic" k2="-1" k3="1"/>
<feColorMatrix type="matrix" values="0 0 0 0 0 0 0 0 0 0 0 0 0 0 0 0 0 0 0.25 0"/>
<feBlend mode="normal" in2="shape" result="effect1_innerShadow_233_4726"/>
</filter>
<linearGradient id="paint0_linear_233_4726" x1="202.252" y1="3" x2="202.252" y2="180" gradientUnits="userSpaceOnUse">
<stop offset="0.723958" stop-color="#381212" stop-opacity="0"/>
<stop offset="1" stop-color="#13172F"/>
</linearGradient>
<linearGradient id="paint1_linear_233_4726" x1="202.252" y1="3" x2="202.252" y2="180" gradientUnits="userSpaceOnUse">
<stop offset="0.0722222" stop-color="white" stop-opacity="0.21"/>
<stop offset="0.244444" stop-color="#966E31" stop-opacity="0.676711"/>
<stop offset="1" stop-color="#55380C"/>
</linearGradient>
</defs>
</svg>
