<svg width="42" height="32" viewBox="0 0 42 32" fill="none" xmlns="http://www.w3.org/2000/svg">
<path d="M23.1818 4.566C24.3538 2.856 26.2938 2 28.9998 2C33.0598 2 39.9998 6.975 39.9998 11.462V22.942C39.9998 27.331 36.1498 30 33.0598 30L20.0098 30C19.2141 30 18.4511 29.6839 17.8884 29.1213C17.3258 28.5587 17.0098 27.7956 17.0098 27V26.99C17.0098 26.197 17.3248 25.4365 17.8855 24.8758C18.4462 24.315 19.2068 24 19.9998 24" stroke="white" stroke-width="4" stroke-linecap="round"/>
<path d="M25.4448 5.98102L5.00482 5.98102C4.61053 5.98115 4.22014 6.05906 3.85599 6.21028C3.49185 6.3615 3.16112 6.58307 2.88273 6.86229C2.60434 7.14152 2.38377 7.47291 2.23364 7.83751C2.08351 8.2021 2.00677 8.59273 2.00782 8.98702C2.00994 9.78517 2.32856 10.5499 2.89378 11.1134C3.459 11.677 4.22467 11.9933 5.02282 11.993L20.5918 11.993" stroke="white" stroke-width="4" stroke-linecap="round"/>
<path d="M20.008 11.993L16.016 11.993C15.2298 12.0132 14.4826 12.3398 13.9337 12.903C13.3848 13.4662 13.0776 14.2215 13.0776 15.008C13.0776 15.7944 13.3848 16.5498 13.9337 17.113C14.4826 17.6762 15.2298 18.0027 16.016 18.023H20.008" stroke="white" stroke-width="4" stroke-linecap="round" stroke-linejoin="round"/>
<path d="M19.7159 18H17.0029C16.2073 18 15.4442 18.3161 14.8816 18.8787C14.319 19.4413 14.0029 20.2044 14.0029 21C14.0029 21.7956 14.319 22.5587 14.8816 23.1213C15.4442 23.6839 16.2073 24 17.0029 24H20.0029" stroke="white" stroke-width="4" stroke-linecap="round" stroke-linejoin="round"/>
</svg>
